<?xml version="1.0" standalone="no"?><!DOCTYPE svg PUBLIC "-//W3C//DTD SVG 1.1//EN" "http://www.w3.org/Graphics/SVG/1.1/DTD/svg11.dtd"><svg t="1589620087070" class="icon" viewBox="0 0 1024 1024" version="1.1" xmlns="http://www.w3.org/2000/svg" p-id="10712" xmlns:xlink="http://www.w3.org/1999/xlink" width="200" height="200"><defs><style type="text/css"></style></defs><path d="M512 938.666667C276.352 938.666667 85.333333 747.648 85.333333 512S276.352 85.333333 512 85.333333s426.666667 191.018667 426.666667 426.666667-191.018667 426.666667-426.666667 426.666667z m-44.714667-412.330667v79.616H313.514667a36.181333 36.181333 0 1 0 0 72.32h153.770666v117.589333a36.138667 36.138667 0 0 0 72.234667 0v-117.674666h153.813333a36.138667 36.138667 0 0 0 0-72.234667h-153.813333v-79.701333H695.466667a36.138667 36.138667 0 0 0 0-72.234667h-120.746667l121.856-145.194667a36.138667 36.138667 0 1 0-55.424-46.464L502.613333 427.52 363.946667 262.4a36.181333 36.181333 0 0 0-55.381334 46.421333l121.856 145.194667h-114.773333a36.181333 36.181333 0 1 0 0 72.32h151.637333z" p-id="10713"></path></svg>