<?xml version="1.0" standalone="no"?><!DOCTYPE svg PUBLIC "-//W3C//DTD SVG 1.1//EN" "http://www.w3.org/Graphics/SVG/1.1/DTD/svg11.dtd"><svg t="1589620072577" class="icon" viewBox="0 0 1024 1024" version="1.1" xmlns="http://www.w3.org/2000/svg" p-id="10474" xmlns:xlink="http://www.w3.org/1999/xlink" width="200" height="200"><defs><style type="text/css"></style></defs><path d="M857.12997 160.576185c-20.155039-20.145829-47.981804-32.662911-78.600149-32.662911l-60.264549 0c-30.617321 0-58.443064 12.517081-78.589916 32.662911-20.156062 20.156062-32.673144 47.972595-32.673144 78.601172l0 69.089541c-0.225127 1.267876-0.347924 2.577708-0.347924 3.90596l0 85.329411c0 12.097526 9.899464 21.985734 21.986757 21.985734 12.097526 0 21.985734-9.888208 21.985734-21.985734l0-59.70173c27.980261 7.986905 48.472991 33.746592 48.472991 64.282049 0 36.917818-29.942963 66.86078-66.859757 66.86078-36.59036 0-66.308195-29.40061-66.850547-65.85794l0-171.260525c0 0-33.80799 0-70.550823 0-36.754089 0-64.682161 29.40061-64.682161 29.40061L169.978834 524.339026l0 0.020466c-22.426779 21.198811-36.426631 51.224662-36.426631 84.510766 0 40.404222 18.714224 66.430992 51.92972 96.834442l160.891364 159.663396 0.419556 0.021489c20.61655 18.641569 47.951105 30.003338 77.935 30.003338 36.518728 0 66.931389-18.079774 90.412173-43.176358 59.875692-56.470129 222.76148-213.249849 254.575046-248.499677 31.81459-35.249829 27.928073-80.850399 27.928073-80.850399L797.643134 233.285161 650.445654 233.285161c1.421372-16.361643 8.722662-31.139208 19.757996-42.173518 12.353352-12.353352 29.369911-20.013823 48.063669-20.013823l60.264549 0c18.703991 0 35.720549 7.66968 48.064692 20.013823 12.342096 12.343119 20.012799 29.359678 20.012799 48.064692l0 14.296611 0 0.285502 0 85.329411c0 12.087293 9.715269 21.986757 21.588691 21.986757 11.882632 0 21.598924-9.899464 21.598924-21.986757L889.796974 327.379189l0-73.619718 0-14.582113C889.793904 208.55799 877.276822 180.732248 857.12997 160.576185z" p-id="10475"></path></svg>